<mxfile host="Electron" modified="2024-01-20T07:12:28.232Z" agent="Mozilla/5.0 (Windows NT 10.0; Win64; x64) AppleWebKit/537.36 (KHTML, like Gecko) draw.io/22.0.3 Chrome/114.0.5735.289 Electron/25.8.4 Safari/537.36" etag="MVUTRRHgVveFRHaNjzBY" version="22.0.3" type="device" pages="2">
  <diagram name="Page-1" id="msv3KL9XtUimXSDXFDJa">
    <mxGraphModel dx="787" dy="1206" grid="1" gridSize="10" guides="1" tooltips="1" connect="1" arrows="1" fold="1" page="1" pageScale="1" pageWidth="827" pageHeight="583" math="0" shadow="0">
      <root>
        <mxCell id="0" />
        <mxCell id="1" parent="0" />
        <mxCell id="SlRn_WwHkfLtaekDXYRm-5" style="edgeStyle=orthogonalEdgeStyle;rounded=0;sketch=1;hachureGap=4;jiggle=2;curveFitting=1;orthogonalLoop=1;jettySize=auto;html=1;fontFamily=Architects Daughter;fontSource=https%3A%2F%2Ffonts.googleapis.com%2Fcss%3Ffamily%3DArchitects%2BDaughter;fontSize=16;" edge="1" parent="1" source="SlRn_WwHkfLtaekDXYRm-1" target="SlRn_WwHkfLtaekDXYRm-2">
          <mxGeometry relative="1" as="geometry" />
        </mxCell>
        <mxCell id="SlRn_WwHkfLtaekDXYRm-1" value="diagram.drawio" style="rounded=0;whiteSpace=wrap;html=1;sketch=1;hachureGap=4;jiggle=2;curveFitting=1;fontFamily=Architects Daughter;fontSize=20;fontSource=https%3A%2F%2Ffonts.googleapis.com%2Fcss%3Ffamily%3DArchitects%2BDaughter;fontStyle=0" vertex="1" parent="1">
          <mxGeometry x="40" y="50" width="180" height="90" as="geometry" />
        </mxCell>
        <mxCell id="SlRn_WwHkfLtaekDXYRm-6" style="edgeStyle=orthogonalEdgeStyle;rounded=0;sketch=1;hachureGap=4;jiggle=2;curveFitting=1;orthogonalLoop=1;jettySize=auto;html=1;fontFamily=Architects Daughter;fontSource=https%3A%2F%2Ffonts.googleapis.com%2Fcss%3Ffamily%3DArchitects%2BDaughter;fontSize=16;" edge="1" parent="1" source="SlRn_WwHkfLtaekDXYRm-2" target="SlRn_WwHkfLtaekDXYRm-4">
          <mxGeometry relative="1" as="geometry" />
        </mxCell>
        <mxCell id="SlRn_WwHkfLtaekDXYRm-2" value="draw.io.exe" style="ellipse;whiteSpace=wrap;html=1;sketch=1;hachureGap=4;jiggle=2;curveFitting=1;fontFamily=Architects Daughter;fontSource=https%3A%2F%2Ffonts.googleapis.com%2Fcss%3Ffamily%3DArchitects%2BDaughter;fontSize=20;" vertex="1" parent="1">
          <mxGeometry x="290" y="110" width="160" height="100" as="geometry" />
        </mxCell>
        <mxCell id="SlRn_WwHkfLtaekDXYRm-8" style="edgeStyle=orthogonalEdgeStyle;rounded=0;sketch=1;hachureGap=4;jiggle=2;curveFitting=1;orthogonalLoop=1;jettySize=auto;html=1;fontFamily=Architects Daughter;fontSource=https%3A%2F%2Ffonts.googleapis.com%2Fcss%3Ffamily%3DArchitects%2BDaughter;fontSize=16;" edge="1" parent="1" source="SlRn_WwHkfLtaekDXYRm-4" target="SlRn_WwHkfLtaekDXYRm-7">
          <mxGeometry relative="1" as="geometry" />
        </mxCell>
        <mxCell id="SlRn_WwHkfLtaekDXYRm-4" value="pdf2svg" style="ellipse;whiteSpace=wrap;html=1;sketch=1;hachureGap=4;jiggle=2;curveFitting=1;fontFamily=Architects Daughter;fontSource=https%3A%2F%2Ffonts.googleapis.com%2Fcss%3Ffamily%3DArchitects%2BDaughter;fontSize=20;" vertex="1" parent="1">
          <mxGeometry x="180" y="270" width="160" height="100" as="geometry" />
        </mxCell>
        <mxCell id="SlRn_WwHkfLtaekDXYRm-10" style="edgeStyle=orthogonalEdgeStyle;rounded=0;sketch=1;hachureGap=4;jiggle=2;curveFitting=1;orthogonalLoop=1;jettySize=auto;html=1;entryX=0;entryY=0.5;entryDx=0;entryDy=0;fontFamily=Architects Daughter;fontSource=https%3A%2F%2Ffonts.googleapis.com%2Fcss%3Ffamily%3DArchitects%2BDaughter;fontSize=16;" edge="1" parent="1" source="SlRn_WwHkfLtaekDXYRm-7" target="SlRn_WwHkfLtaekDXYRm-9">
          <mxGeometry relative="1" as="geometry" />
        </mxCell>
        <mxCell id="SlRn_WwHkfLtaekDXYRm-7" value="diagram.drawio" style="rounded=0;whiteSpace=wrap;html=1;sketch=1;hachureGap=4;jiggle=2;curveFitting=1;fontFamily=Architects Daughter;fontSize=20;fontSource=https%3A%2F%2Ffonts.googleapis.com%2Fcss%3Ffamily%3DArchitects%2BDaughter;fontStyle=0" vertex="1" parent="1">
          <mxGeometry x="170" y="460" width="180" height="90" as="geometry" />
        </mxCell>
        <mxCell id="SlRn_WwHkfLtaekDXYRm-9" value="Emacs&lt;br&gt;&lt;br&gt;orgmode&lt;br&gt;&lt;br&gt;#+drawio: diagram.drawio&lt;br&gt;[[./images/diagram.svg]]" style="rounded=1;whiteSpace=wrap;html=1;sketch=1;hachureGap=4;jiggle=2;curveFitting=1;fontFamily=Architects Daughter;fontSource=https%3A%2F%2Ffonts.googleapis.com%2Fcss%3Ffamily%3DArchitects%2BDaughter;fontSize=20;" vertex="1" parent="1">
          <mxGeometry x="490" y="220" width="300" height="228" as="geometry" />
        </mxCell>
      </root>
    </mxGraphModel>
  </diagram>
  <diagram id="QJ38TjwHdygvglSyfwmH" name="Page-2">
    <mxGraphModel dx="787" dy="1206" grid="1" gridSize="10" guides="1" tooltips="1" connect="1" arrows="1" fold="1" page="1" pageScale="1" pageWidth="827" pageHeight="583" math="0" shadow="0">
      <root>
        <mxCell id="0" />
        <mxCell id="1" parent="0" />
        <mxCell id="0PqRXt8_KsxW1oin-FXE-4" value="draw.io.exe" style="ellipse;whiteSpace=wrap;html=1;sketch=1;hachureGap=4;jiggle=2;curveFitting=1;fontFamily=Architects Daughter;fontSource=https%3A%2F%2Ffonts.googleapis.com%2Fcss%3Ffamily%3DArchitects%2BDaughter;fontSize=20;" vertex="1" parent="1">
          <mxGeometry x="460" y="320" width="160" height="100" as="geometry" />
        </mxCell>
        <mxCell id="0PqRXt8_KsxW1oin-FXE-10" style="edgeStyle=orthogonalEdgeStyle;rounded=0;sketch=1;hachureGap=4;jiggle=2;curveFitting=1;orthogonalLoop=1;jettySize=auto;html=1;entryX=0;entryY=0.5;entryDx=0;entryDy=0;fontFamily=Architects Daughter;fontSource=https%3A%2F%2Ffonts.googleapis.com%2Fcss%3Ffamily%3DArchitects%2BDaughter;fontSize=16;" edge="1" parent="1" source="0PqRXt8_KsxW1oin-FXE-9" target="0PqRXt8_KsxW1oin-FXE-4">
          <mxGeometry relative="1" as="geometry" />
        </mxCell>
        <mxCell id="0PqRXt8_KsxW1oin-FXE-9" value="Emacs&lt;br&gt;&lt;br&gt;orgmode&lt;br&gt;&lt;br&gt;#+drawio: diagram.drawio&lt;br style=&quot;border-color: var(--border-color);&quot;&gt;[[./images/diagram.svg]]" style="rounded=1;whiteSpace=wrap;html=1;sketch=1;hachureGap=4;jiggle=2;curveFitting=1;fontFamily=Architects Daughter;fontSource=https%3A%2F%2Ffonts.googleapis.com%2Fcss%3Ffamily%3DArchitects%2BDaughter;fontSize=20;" vertex="1" parent="1">
          <mxGeometry x="40" y="120" width="290" height="208" as="geometry" />
        </mxCell>
      </root>
    </mxGraphModel>
  </diagram>
</mxfile>
